 <svg  version="1.0" xmlns="http://www.w3.org/2000/svg"  width="300.000000pt" height="101.000000pt" viewBox="0 0 300.000000 101.000000"  preserveAspectRatio="xMidYMid meet">  <g transform="translate(0.000000,101.000000) scale(0.100000,-0.100000)" fill="#0112f9" stroke="none"> <path d="M483 891 c-23 -4 -51 -15 -61 -24 -10 -9 -30 -17 -44 -17 -14 0 -33 -8 -42 -19 -9 -10 -30 -21 -46 -25 -47 -9 -63 -53 -68 -178 -3 -75 -8 -111 -18 -119 -20 -17 -17 -56 6 -79 11 -11 26 -48 34 -82 30 -130 73 -198 124 -198 15 0 34 -6 41 -12 13 -14 72 -20 181 -19 115 1 148 54 157 251 5 109 7 116 27 117 415 28 875 34 1211 14 110 -6 214 -12 231 -13 l31 -2 6 -115 c6 -135 18 -181 55 -222 25 -27 33 -29 97 -30 101 -1 157 5 182 19 12 7 33 12 47 12 36 0 80 59 105 143 12 40 21 80 21 89 0 10 9 26 20 36 28 26 36 74 16 91 -12 10 -16 34 -16 100 -1 114 -23 181 -65 194 -16 5 -39 18 -51 28 -11 11 -28 19 -38 19 -10 0 -33 9 -50 19 -17 11 -60 22 -96 26 -58 6 -68 4 -94 -16 -35 -28 -89 -141 -107 -224 -6 -33 -15 -63 -18 -67 -4 -4 -103 -1 -221 7 -277 19 -803 19 -1080 0 -118 -8 -217 -11 -221 -7 -3 4 -13 39 -23 77 -20 87 -69 188 -103 215 -26 21 -55 23 -130 11z m118 -32 c22 -19 23 -19 2 -10 -47 23 -68 -10 -85 -131 -21 -146 21 -392 85 -501 29 -50 49 -57 79 -30 10 9 18 12 18 6 0 -36 -120 -70 -171 -50 -13 5 -40 9 -60 8 -22 -2 -40 4 -49 14 -9 11 -22 14 -40 10 -22 -5 -32 0 -53 25 -51 60 -92 268 -84 430 4 113 17 146 60 154 17 3 36 15 44 26 8 12 26 20 41 20 15 0 39 8 52 17 21 15 55 23 126 32 7 0 22 -8 35 -20z m1955 -10 c17 -11 42 -19 56 -19 14 0 34 -11 46 -25 12 -14 31 -25 42 -25 36 0 53 -43 57 -148 8 -159 -32 -360 -84 -430 -21 -28 -29 -32 -52 -27 -19 4 -32 1 -41 -10 -9 -10 -27 -16 -49 -14 -20 1 -47 -3 -60 -8 -52 -21 -171 14 -171 50 0 6 6 3 13 -8 10 -13 21 -16 39 -12 51 13 107 167 128 354 22 195 -22 368 -83 327 -7 -5 -5 -1 5 8 24 22 108 14 154 -13z m-1937 -35 c25 -32 60 -140 68 -209 8 -74 -11 -44 -29 46 -19 87 -54 169 -74 169 -7 0 -20 -21 -28 -47 -9 -29 -15 -39 -15 -25 -1 34 26 92 43 92 8 0 24 -12 35 -26z m1820 7 c6 -10 13 -38 16 -62 6 -50 1 -44 -15 19 -7 26 -16 42 -26 42 -19 0 -49 -67 -69 -156 -22 -96 -25 -105 -35 -99 -9 5 10 98 36 177 27 84 71 121 93 79z m-23 -60 c-3 -5 3 -20 14 -34 17 -22 19 -37 16 -123 -3 -55 -10 -121 -15 -147 -6 -27 -9 -53 -6 -58 4 -5 2 -9 -2 -9 -14 0 -45 -59 -37 -72 4 -7 3 -8 -4 -4 -11 7 -17 -6 -12 -29 1 -5 -5 -4 -12 3 -15 15 -20 122 -5 122 12 0 53 32 56 45 2 6 7 20 12 33 13 34 11 65 -6 88 -8 12 -11 24 -8 28 3 3 2 6 -3 6 -6 0 -19 7 -30 16 -10 8 -14 13 -8 10 7 -3 12 4 12 17 1 12 3 31 6 42 2 11 5 26 5 33 1 7 6 10 12 6 8 -4 9 0 4 15 -4 13 -2 21 5 21 6 0 9 -4 6 -9z m-1802 -56 c16 -49 14 -60 -25 -124 -19 -32 -19 -36 -4 -86 10 -35 24 -60 43 -73 22 -17 27 -28 27 -65 0 -45 -13 -74 -22 -49 -3 6 -9 10 -14 6 -5 -3 -9 3 -9 13 0 10 -8 27 -17 38 -15 19 -15 19 -9 -8 12 -53 55 -137 69 -137 21 0 37 75 37 174 0 51 4 86 10 86 14 0 11 -175 -3 -224 -7 -21 -20 -44 -30 -50 -15 -9 -22 -6 -42 16 -26 31 -59 130 -51 156 3 10 2 31 -3 48 -5 18 -5 37 1 47 6 12 5 19 -4 22 -9 4 -14 33 -16 97 -4 145 29 207 62 113z m44 -123 c2 -8 -2 -10 -14 -5 -15 5 -16 0 -12 -50 5 -62 14 -79 29 -57 8 12 9 11 7 -5 -5 -28 -30 -25 -45 5 -14 27 -17 88 -7 115 7 18 35 17 42 -3z m1728 -7 c8 -31 -3 -104 -18 -122 -15 -18 -38 -16 -38 3 0 8 5 12 10 9 13 -8 30 37 30 82 0 27 -3 34 -15 29 -15 -5 -20 5 -8 17 14 15 33 6 39 -18z m-316 -4 c256 -17 280 -21 280 -38 0 -13 -10 -15 -62 -9 -406 42 -1315 40 -1588 -4 -61 -10 -37 -9 290 10 91 5 208 9 260 8 77 -1 65 -2 -65 -9 -88 -4 -242 -13 -343 -19 -186 -13 -209 -10 -197 22 8 19 46 24 305 38 107 6 218 12 245 14 90 7 716 -3 875 -13z m-492 -28 c-43 -2 -113 -2 -155 0 -43 1 -8 3 77 3 85 0 120 -2 78 -3z m521 -18 c135 -9 247 -18 250 -20 10 -11 -8 -12 -86 -3 -45 5 -198 15 -340 22 -152 8 -219 14 -163 15 52 0 205 -6 339 -14z m211 -136 c0 -106 15 -171 39 -167 9 2 29 36 48 83 35 86 43 86 17 -1 -20 -71 -56 -113 -81 -98 -10 6 -23 26 -30 45 -15 42 -17 229 -3 229 6 0 10 -37 10 -91z"/> <path d="M475 832 c-2 -2 -11 -5 -21 -6 -13 -2 -22 -18 -31 -52 -14 -55 -17 -103 -4 -71 4 10 11 18 15 17 5 -1 13 4 18 12 7 9 8 3 4 -17 l-5 -30 12 26 c10 23 12 8 13 -95 0 -78 6 -148 18 -198 9 -43 14 -83 10 -89 -5 -8 -3 -9 6 -4 10 6 12 4 6 -11 -17 -43 -18 -48 -3 -29 16 20 16 20 14 -1 -1 -23 -19 -26 -40 -5 -9 9 -9 14 3 22 13 9 13 10 -1 6 -9 -3 -23 0 -30 6 -11 10 -11 9 0 -5 7 -9 10 -21 8 -25 -3 -5 7 -31 21 -58 26 -48 28 -50 73 -50 l46 0 -23 30 c-29 39 -60 132 -79 240 -19 112 -19 296 0 350 8 22 15 41 15 42 0 3 -41 -1 -45 -5z"/> <path d="M364 790 c-25 -10 -43 -95 -25 -113 8 -8 11 -6 11 7 0 15 2 16 15 2 8 -8 12 -21 9 -29 -8 -22 13 -223 31 -290 18 -68 7 -110 -15 -57 -9 21 -16 27 -21 19 -9 -15 0 -41 12 -33 5 3 6 -1 3 -9 -3 -8 5 -35 16 -61 20 -41 25 -45 49 -40 14 4 27 8 28 8 1 1 -8 29 -22 61 -38 96 -58 216 -59 360 -1 72 2 142 7 158 8 29 0 33 -39 17z"/> <path d="M289 753 c-19 -5 -30 -46 -28 -107 1 -38 2 -39 8 -11 10 45 18 20 25 -80 4 -49 13 -121 21 -160 14 -76 11 -97 -10 -68 -12 16 -13 14 -5 -17 4 -19 15 -51 24 -72 12 -28 20 -35 36 -31 24 6 24 10 5 57 -28 67 -56 264 -54 378 2 59 1 109 -2 111 -2 2 -11 2 -20 0z"/> <path d="M2484 829 c21 -70 26 -102 26 -189 0 -164 -41 -355 -94 -433 l-23 -34 46 2 c43 1 48 4 68 41 14 25 21 50 18 71 -3 27 -1 31 13 26 14 -6 15 -5 2 9 -13 14 -16 14 -27 -1 -8 -11 -8 -18 0 -23 8 -5 7 -11 -2 -22 -16 -19 -36 -11 -38 14 -1 13 2 18 9 14 6 -4 8 -3 5 3 -4 6 3 46 14 89 15 59 21 113 22 213 1 121 2 130 13 95 l13 -39 -5 40 c-4 30 -3 36 5 25 10 -13 11 -13 11 0 1 8 7 2 15 -15 l15 -30 -5 40 c-10 70 -25 105 -46 106 -28 2 -32 3 -48 13 -11 7 -13 4 -7 -15z"/> <path d="M2597 768 c13 -52 6 -267 -12 -362 -9 -49 -26 -113 -38 -144 -12 -32 -22 -61 -22 -66 0 -14 42 -17 53 -3 18 21 52 108 40 101 -8 -5 -9 -2 -5 10 4 9 3 15 -2 11 -5 -3 -12 1 -15 7 -3 7 -3 3 -1 -9 3 -12 2 -24 -3 -27 -14 -8 -11 22 9 109 12 51 19 121 20 195 1 73 4 106 9 90 7 -21 8 -22 10 -5 2 17 3 16 9 -5 8 -25 8 -25 15 7 11 46 -9 109 -37 117 -36 10 -39 7 -30 -26z"/> <path d="M2684 611 c-1 -145 -26 -309 -55 -363 -10 -18 -8 -24 7 -35 17 -12 20 -10 38 24 10 21 21 51 23 67 3 28 2 29 -12 10 -14 -19 -14 -19 -15 1 0 11 4 35 9 53 6 18 15 85 21 150 13 126 21 154 31 107 6 -26 7 -24 8 16 2 73 -8 107 -33 111 -21 4 -21 2 -22 -141z"/> </g> </svg> 