<?xml version="1.0" standalone="no"?>
<!DOCTYPE svg PUBLIC "-//W3C//DTD SVG 20010904//EN"
 "http://www.w3.org/TR/2001/REC-SVG-20010904/DTD/svg10.dtd">
<svg version="1.0" xmlns="http://www.w3.org/2000/svg"
 width="60" height="60" viewBox="0 0 2575 200"
 preserveAspectRatio="xMidYMid meet">
<metadata>
Created by potrace 1.10, written by Peter Selinger 2001-2011
</metadata>
<g transform="translate(0.000000,101.000000) scale(0.050000,-0.050000)"
fill="#ffdb6e" stroke="none">
<path d="M991 1785 c-43 -4 -103 -25 -133 -46 -30 -22 -76 -39 -104 -39 -27 0
-61 -14 -75 -32 -15 -17 -60 -45 -100 -61 -100 -40 -123 -99 -135 -347 -6
-134 -20 -226 -38 -254 -32 -48 -19 -122 27 -156 14 -11 44 -89 66 -173 66
-263 133 -361 261 -385 39 -8 120 -23 180 -35 419 -80 532 17 555 478 9 182
17 226 43 233 254 73 2672 72 2927 -1 29 -8 35 -34 35 -165 0 -508 118 -623
560 -544 72 13 159 29 195 35 113 20 228 216 259 441 6 49 27 98 46 112 52 37
68 109 35 160 -19 28 -33 119 -39 244 -11 231 -39 307 -132 353 -37 18 -83 48
-102 65 -19 18 -56 32 -81 32 -26 0 -74 17 -109 38 -264 161 -483 -3 -573
-428 -14 -66 -32 -127 -39 -136 -8 -9 -220 -2 -471 15 -584 40 -1513 40 -2097
0 -251 -17 -462 -26 -468 -20 -6 6 -28 77 -48 156 -45 182 -142 381 -210 434
-50 40 -74 43 -235 26z m189 -45 c24 -16 21 -19 -16 -20 -208 -1 -172 -969 49
-1307 43 -66 59 -76 110 -68 50 7 55 4 31 -20 -37 -37 -236 -63 -297 -39 -26
11 -79 17 -118 15 -46 -2 -82 8 -99 29 -18 22 -44 28 -81 20 -248 -55 -398
1147 -152 1213 32 8 71 33 86 56 19 26 51 41 92 41 34 0 79 15 100 34 31 29
97 45 245 63 11 1 34 -6 50 -17z m3924 -42 c30 -21 81 -38 114 -38 38 0 70
-15 89 -41 15 -23 54 -48 86 -56 244 -65 94 -1267 -152 -1213 -37 8 -63 2 -80
-19 -15 -18 -60 -32 -108 -32 -46 -1 -100 -8 -121 -17 -52 -20 -252 9 -284 42
-22 22 -16 26 35 26 54 0 69 14 122 106 208 368 229 1263 29 1264 -34 1 -38 5
-15 19 44 28 224 2 285 -41z m-3787 -263 c45 -147 74 -320 46 -275 -10 17 -25
70 -33 119 -18 109 -82 297 -115 341 -14 17 -5 11 19 -14 25 -26 62 -103 83
-171z m3454 155 c-26 -39 -63 -140 -82 -225 -41 -188 -75 -275 -60 -153 16
127 86 337 132 395 60 76 66 65 10 -17z m-3508 -498 c-7 -118 28 -219 59 -170
11 18 17 20 18 4 0 -32 -27 -47 -55 -29 -56 34 -83 193 -44 264 29 55 30 52
22 -69z m3503 35 c32 -110 -51 -299 -98 -223 -9 13 -5 17 8 9 12 -8 31 4 43
25 27 51 27 236 1 249 -12 5 -10 8 4 5 14 -3 33 -32 42 -65z m-616 15 c501
-35 550 -41 550 -76 0 -27 -19 -30 -125 -18 -757 80 -2358 80 -3150 -1 -103
-10 -125 -7 -125 17 0 37 74 47 590 76 209 11 421 24 470 28 164 14 1485 -6
1790 -26z m-1026 -57 c-80 -4 -206 -4 -280 0 -74 4 -8 7 146 7 154 0 214 -3
134 -7z m-649 -20 c-52 -4 -138 -4 -190 0 -52 4 -9 8 95 8 105 0 147 -4 95 -8z
m1230 0 c-47 -4 -123 -4 -170 0 -47 5 -8 8 85 8 94 0 132 -3 85 -8z m-1527
-12 c-4 -5 -152 -12 -328 -17 -176 -5 -257 -4 -180 4 159 15 521 24 508 13z
m2152 -13 c126 -11 78 -13 -160 -5 -187 5 -344 13 -348 17 -14 13 315 5 508
-12z m-2924 -370 c-22 -265 -100 -344 -178 -183 -27 57 -27 59 1 24 17 -21 31
-45 31 -53 0 -7 14 -19 31 -26 54 -20 89 105 91 332 2 166 6 190 20 126 9 -44
11 -143 4 -220z m3252 -217 c32 -39 53 -28 104 54 21 35 38 54 38 42 0 -56
-92 -151 -132 -135 -56 21 -104 321 -75 470 14 72 18 46 27 -156 7 -160 20
-254 38 -275z"/>
<path d="M851 1576 c-36 -120 -42 -224 -11 -176 15 24 20 20 22 -20 l2 -50 16
50 c13 42 16 43 18 10 2 -29 7 -33 19 -14 10 16 22 -55 30 -173 7 -110 26
-270 43 -356 16 -86 25 -174 19 -197 -10 -33 -8 -35 11 -10 20 27 22 27 15 0
-10 -34 -71 -40 -115 -10 -25 17 -26 15 -5 -12 13 -17 19 -37 13 -43 -47 -47
101 -236 178 -227 79 8 80 15 22 142 -148 321 -196 898 -97 1155 11 30 1 35
-68 35 -81 0 -82 -1 -112 -104z"/>
<path d="M682 1537 c-31 -89 -27 -195 8 -230 27 -27 30 -26 32 7 5 73 33 -87
36 -204 2 -66 19 -202 39 -302 l35 -182 -54 4 -54 5 27 -79 c60 -170 115 -223
184 -179 20 12 14 42 -23 134 -107 267 -156 727 -107 1004 21 114 -84 133
-123 22z"/>
<path d="M541 1481 c-12 -21 -20 -86 -20 -145 1 -74 7 -94 18 -66 22 55 60
-82 62 -220 1 -55 13 -165 27 -245 22 -121 22 -145 -1 -145 -38 0 -33 -75 12
-174 31 -67 46 -81 79 -72 51 13 52 4 -6 186 -71 221 -99 454 -86 703 12 225
-22 296 -85 178z"/>
<path d="M4982 1681 c-18 -11 -17 -29 2 -73 84 -195 12 -862 -122 -1131 l-59
-117 47 -12 c83 -21 119 0 175 102 54 99 60 144 18 135 -13 -3 -16 10 -9 30
12 30 9 31 -18 9 -51 -41 -59 2 -26 129 38 145 73 507 57 587 -8 38 -4 60 11
60 12 0 22 -11 22 -25 1 -18 6 -17 18 3 14 22 20 18 27 -20 10 -48 10 -48 12
-2 2 30 11 41 26 32 30 -18 9 153 -28 228 -26 53 -113 90 -153 65z"/>
<path d="M5194 1512 c50 -314 -10 -805 -127 -1037 -26 -52 -41 -96 -32 -97 8
0 33 -4 54 -8 54 -10 90 24 135 128 36 86 36 156 -2 133 -37 -22 -41 56 -12
223 17 94 30 237 30 316 0 111 7 148 30 157 17 7 30 2 30 -9 0 -11 9 -15 20
-8 67 41 0 283 -82 295 l-61 8 17 -101z"/>
<path d="M5368 1205 c-2 -278 -8 -338 -56 -505 -29 -104 -58 -209 -64 -232
-24 -91 71 -75 113 18 47 103 50 174 9 174 -21 0 -28 14 -21 45 30 135 51 294
51 377 0 121 34 220 61 177 13 -20 18 -1 19 65 0 119 -29 196 -75 196 -32 0
-35 -27 -37 -315z"/>
</g>
</svg>
