<?xml version="1.0" standalone="no"?>
<!DOCTYPE svg PUBLIC "-//W3C//DTD SVG 20010904//EN"
 "http://www.w3.org/TR/2001/REC-SVG-20010904/DTD/svg10.dtd">
<svg version="1.0" xmlns="http://www.w3.org/2000/svg"
 width="675.000000pt" height="675.000000pt" viewBox="0 0 675.000000 675.000000"
 preserveAspectRatio="xMidYMid meet">
<metadata>
Created by potrace 1.10, written by Peter Selinger 2001-2011
</metadata>
<g transform="translate(0.000000,675.000000) scale(0.100000,-0.100000)"
fill="#ffdb6e" stroke="none">
<path d="M1085 4280 c-49 -9 -135 -42 -180 -69 -19 -11 -65 -27 -102 -37 -37
-9 -79 -22 -93 -29 -14 -7 -43 -21 -65 -31 -22 -11 -53 -29 -70 -41 -30 -21
-98 -50 -145 -60 -14 -3 -30 -10 -36 -14 -6 -5 -31 -20 -54 -32 -62 -32 -79
-60 -89 -147 -13 -100 11 -279 51 -395 6 -16 13 -44 15 -61 5 -30 2 -33 -44
-54 -26 -12 -60 -29 -75 -36 -14 -8 -33 -14 -42 -14 -9 0 -25 -9 -36 -20 -18
-18 -20 -29 -15 -88 15 -171 91 -312 170 -312 17 0 36 5 42 11 6 6 29 15 50
19 21 5 52 14 70 21 36 14 63 1 63 -31 0 -10 7 -23 15 -30 8 -7 15 -17 15 -23
0 -13 33 -79 61 -122 10 -16 22 -37 26 -45 9 -21 50 -76 101 -137 l44 -53 76
0 c48 1 86 6 102 15 14 8 33 14 43 15 10 0 33 11 51 25 18 14 66 35 107 46 41
11 89 27 107 35 18 8 37 14 42 14 5 0 32 14 60 30 28 17 64 30 81 30 17 0 39
5 50 10 10 6 38 15 61 20 74 15 120 36 155 71 l35 33 -5 111 c-5 100 -14 156
-47 298 -11 43 -10 50 7 63 10 8 30 17 45 20 47 11 60 44 57 150 -2 61 1 98 9
106 6 6 30 15 54 19 58 11 164 34 213 46 22 6 85 18 140 27 55 10 121 22 147
27 26 6 80 14 120 19 99 12 235 28 343 42 134 16 922 23 1031 8 49 -6 139 -15
199 -20 61 -4 133 -13 160 -19 47 -10 103 -18 265 -41 36 -4 78 -13 93 -19 16
-6 41 -11 57 -11 15 0 50 -6 76 -14 56 -16 129 -34 192 -45 23 -4 45 -11 49
-15 4 -3 5 -52 4 -107 -3 -113 8 -142 56 -152 15 -4 37 -14 48 -22 17 -14 18
-19 7 -58 -7 -23 -17 -69 -22 -102 -5 -33 -14 -76 -20 -95 -5 -19 -10 -76 -10
-126 0 -90 0 -92 33 -124 34 -32 80 -54 147 -70 19 -4 48 -13 63 -19 16 -6 43
-11 62 -11 19 0 36 -4 39 -9 14 -21 246 -111 288 -111 8 0 34 -14 56 -30 23
-17 50 -30 60 -30 10 0 26 -6 37 -14 28 -18 116 -27 159 -15 39 11 118 93 151
156 10 21 25 45 31 53 20 24 99 183 104 210 6 31 36 37 82 17 54 -22 134 -47
155 -47 24 0 82 57 105 102 30 60 47 133 50 210 3 81 -8 108 -44 108 -11 0
-32 6 -46 14 -15 7 -48 23 -74 35 -52 23 -60 44 -33 91 8 14 14 40 15 57 0 18
6 50 14 70 39 108 37 353 -4 398 -16 17 -51 37 -183 101 -16 8 -35 14 -44 14
-8 0 -33 12 -56 28 -23 15 -58 35 -77 44 -32 15 -49 22 -133 57 -15 6 -37 11
-48 11 -22 0 -125 46 -134 59 -2 5 -22 12 -42 16 -21 4 -43 11 -50 16 -6 6
-44 9 -84 7 l-73 -3 -49 -60 c-27 -33 -53 -69 -58 -80 -5 -11 -18 -33 -29 -50
-11 -16 -22 -37 -26 -45 -3 -8 -9 -22 -14 -30 -5 -8 -21 -39 -35 -67 -22 -45
-30 -53 -53 -53 -16 0 -37 7 -48 15 -10 8 -35 15 -56 15 -30 0 -41 -6 -65 -37
-42 -55 -63 -90 -63 -106 0 -30 -27 -40 -72 -28 -119 33 -275 68 -366 81 -35
5 -67 12 -73 15 -9 6 -146 28 -279 45 -36 4 -103 13 -150 19 -284 36 -961 54
-1165 31 -55 -7 -134 -14 -175 -16 -117 -6 -433 -51 -561 -79 -37 -8 -79 -15
-94 -15 -14 0 -34 -4 -44 -10 -10 -5 -43 -14 -72 -19 -61 -11 -121 -26 -196
-49 -56 -17 -83 -8 -83 28 0 10 -7 23 -15 30 -8 7 -15 17 -15 22 0 6 -14 28
-31 49 -35 44 -64 50 -126 24 -62 -26 -69 -22 -113 68 -23 45 -50 96 -61 112
-10 17 -23 39 -28 50 -19 44 -102 133 -132 144 -35 12 -36 12 -94 1z m5 -106
c0 -21 -4 -33 -10 -29 -17 10 -11 65 7 65 2 0 3 -16 3 -36z m4570 -67 c0 -43
-4 -66 -10 -62 -5 3 -10 41 -10 83 0 53 3 72 10 62 5 -8 10 -46 10 -83z
m-4619 71 c0 -7 5 -47 10 -88 6 -41 13 -109 16 -150 2 -41 11 -83 19 -94 8
-11 14 -41 14 -66 0 -26 7 -55 15 -66 8 -10 15 -35 15 -55 0 -20 7 -42 15 -49
8 -7 15 -29 15 -50 0 -21 7 -43 15 -50 8 -7 15 -25 15 -39 0 -15 7 -36 15 -47
8 -10 15 -28 15 -40 0 -11 7 -29 15 -40 8 -10 15 -29 15 -40 0 -12 7 -27 15
-34 8 -7 15 -20 15 -30 0 -10 7 -23 15 -30 8 -7 15 -23 15 -35 0 -12 7 -28 15
-35 8 -7 15 -20 15 -30 0 -10 7 -23 15 -30 8 -7 15 -21 15 -31 0 -10 5 -21 11
-24 5 -4 15 -17 20 -28 5 -12 18 -35 29 -52 11 -16 24 -39 29 -50 5 -11 20
-32 33 -46 14 -15 28 -34 31 -43 4 -9 11 -16 17 -16 5 0 10 -9 10 -20 0 -26
-52 -48 -133 -56 l-62 -6 -35 48 c-39 54 -65 100 -111 189 -16 33 -34 67 -38
75 -13 23 -48 105 -81 190 -12 30 -26 63 -31 72 -5 10 -9 23 -9 30 -1 7 -9 31
-20 53 -11 22 -19 49 -20 61 0 11 -4 24 -9 30 -4 5 -18 43 -31 84 -12 41 -26
84 -31 95 -4 11 -11 36 -14 55 -4 19 -13 54 -21 78 -8 23 -14 60 -14 80 0 21
-5 43 -11 49 -6 6 -13 53 -16 106 l-6 95 32 31 c17 17 39 31 49 31 9 0 26 7
36 15 24 18 66 20 67 3z m4749 -16 c78 -39 86 -59 73 -168 -19 -147 -34 -228
-44 -238 -5 -6 -9 -20 -9 -33 0 -12 -6 -42 -14 -65 -8 -24 -24 -77 -35 -118
-12 -41 -26 -83 -32 -92 -5 -10 -9 -25 -9 -33 0 -15 -30 -90 -50 -127 -6 -10
-10 -25 -10 -34 0 -9 -6 -28 -13 -42 -8 -15 -21 -43 -29 -62 -47 -109 -149
-304 -190 -365 -49 -71 -74 -90 -99 -74 -8 5 -26 9 -41 9 -46 0 -108 30 -108
51 0 10 4 19 8 19 8 0 82 95 82 105 0 3 14 24 30 47 17 22 30 47 30 53 0 7 7
18 15 25 8 7 15 20 15 30 0 10 7 23 15 30 8 7 15 20 15 30 0 10 7 23 15 30 8
7 15 20 15 30 0 10 7 23 15 30 8 7 15 23 15 35 0 12 7 28 15 35 8 7 15 23 15
37 0 13 7 31 15 39 8 9 15 26 15 38 0 13 7 29 15 36 8 7 15 27 15 45 0 18 7
38 15 45 8 7 15 29 15 50 0 21 7 43 15 50 9 7 15 29 15 52 0 22 7 46 15 54 9
10 15 34 15 63 0 31 5 53 15 61 11 9 15 33 15 85 0 40 6 90 14 111 7 22 12 62
11 89 -1 28 0 53 2 58 8 14 49 6 103 -21z m-4955 -300 c8 -20 32 -118 45 -184
5 -26 13 -56 19 -67 6 -11 11 -28 11 -38 0 -10 7 -31 15 -47 8 -15 15 -38 15
-50 0 -12 7 -31 15 -42 8 -10 15 -28 15 -40 0 -11 7 -29 15 -40 8 -10 15 -31
15 -45 0 -15 7 -32 15 -39 8 -7 15 -20 15 -29 0 -9 7 -29 15 -45 8 -15 15 -32
15 -37 0 -9 77 -179 107 -234 70 -133 106 -190 133 -212 10 -8 12 -15 5 -22
-8 -8 -22 4 -48 39 -20 27 -37 54 -37 59 0 5 -4 11 -8 13 -10 4 -14 10 -104
190 -38 73 -68 139 -68 146 0 7 -4 12 -9 12 -5 0 -12 18 -16 40 -4 22 -11 40
-16 40 -5 0 -9 10 -9 23 0 13 -7 32 -15 43 -8 10 -15 25 -15 32 0 8 -6 28 -14
45 -8 18 -17 49 -21 70 -3 20 -10 37 -14 37 -5 0 -12 20 -15 45 -4 25 -11 45
-16 45 -5 0 -12 26 -16 58 -3 31 -10 62 -15 68 -5 6 -12 40 -15 75 -4 35 -12
70 -17 77 -13 16 -21 217 -11 241 4 9 11 -34 15 -97 4 -62 10 -120 14 -130z
m5092 109 c-2 -64 -7 -123 -13 -131 -9 -15 -23 -81 -45 -207 -6 -35 -15 -63
-19 -63 -4 0 -11 -20 -14 -45 -4 -24 -11 -47 -16 -50 -4 -3 -11 -23 -15 -45
-4 -22 -11 -42 -16 -46 -5 -3 -9 -15 -9 -27 0 -12 -9 -35 -20 -52 -11 -16 -20
-40 -20 -52 0 -13 -4 -23 -9 -23 -5 0 -12 -18 -16 -40 -4 -22 -11 -40 -16 -40
-5 0 -9 -5 -9 -11 0 -7 -16 -45 -35 -85 -19 -40 -35 -77 -35 -83 0 -6 -4 -11
-9 -11 -5 0 -12 -13 -16 -30 -4 -16 -11 -30 -16 -30 -5 0 -9 -6 -9 -14 0 -8
-6 -21 -12 -28 -20 -21 -37 -50 -49 -80 -6 -16 -14 -28 -17 -28 -4 0 -18 -16
-31 -35 -13 -19 -27 -35 -32 -35 -15 0 -10 30 6 36 8 3 17 15 21 27 6 19 11
26 39 60 10 11 128 250 163 327 8 19 21 47 29 62 7 14 13 34 13 45 0 10 7 27
15 37 8 11 15 29 15 40 0 12 7 30 15 40 8 11 15 27 15 37 0 9 7 30 15 45 8 16
15 36 15 45 0 9 7 30 15 45 8 16 15 36 15 45 0 9 7 33 15 52 8 20 15 52 15 71
0 19 4 37 9 40 5 4 12 25 16 49 4 23 12 47 17 54 5 6 12 68 15 137 3 71 10
123 15 120 5 -3 7 -58 5 -123z m-5157 -12 c3 -72 10 -133 18 -146 6 -12 12
-42 12 -66 0 -27 6 -49 15 -57 9 -8 15 -30 15 -60 0 -30 6 -52 15 -60 8 -7 15
-27 15 -44 0 -18 7 -41 15 -52 8 -10 15 -33 15 -50 0 -17 7 -37 15 -44 8 -7
15 -25 15 -39 0 -15 7 -36 15 -47 8 -10 15 -27 15 -36 0 -9 8 -31 17 -50 9
-18 22 -45 30 -60 7 -14 13 -34 13 -43 0 -9 7 -23 15 -31 8 -9 15 -24 15 -33
0 -10 7 -24 15 -31 8 -7 15 -21 15 -32 0 -10 7 -21 15 -24 8 -4 15 -17 15 -29
0 -13 5 -27 11 -30 5 -4 15 -17 20 -28 18 -42 58 -108 87 -145 16 -20 32 -47
36 -58 6 -20 1 -23 -46 -32 -29 -6 -77 -16 -107 -23 -49 -11 -55 -11 -68 7 -7
10 -19 26 -26 34 -21 26 -87 137 -87 148 0 6 -3 12 -8 14 -8 3 -82 149 -82
161 0 5 -13 35 -30 69 -16 33 -30 66 -30 73 0 7 -7 26 -15 41 -8 16 -15 37
-15 46 0 9 -4 19 -9 23 -5 3 -13 20 -17 38 -3 17 -13 48 -22 67 -24 56 -30 73
-41 115 -5 22 -19 72 -31 110 -32 108 -54 227 -65 341 -5 62 -3 73 16 98 21
27 113 76 143 76 8 0 18 5 21 11 4 5 12 8 18 6 8 -2 14 -47 17 -128z m5246
115 c78 -31 102 -45 134 -74 l33 -30 -8 -83 c-3 -45 -11 -102 -16 -127 -6 -25
-15 -70 -21 -100 -5 -30 -14 -59 -19 -64 -5 -6 -9 -24 -9 -40 0 -17 -7 -44
-15 -60 -8 -16 -18 -46 -21 -68 -4 -21 -11 -41 -15 -44 -5 -3 -9 -13 -9 -22 0
-9 -6 -28 -13 -42 -7 -14 -23 -56 -36 -95 -13 -38 -27 -74 -32 -80 -5 -5 -9
-18 -9 -28 0 -10 -6 -31 -13 -45 -8 -15 -21 -43 -30 -62 -69 -157 -169 -340
-189 -348 -4 -2 -8 -9 -8 -15 0 -21 -34 -47 -62 -47 -16 0 -44 6 -63 14 -19 8
-55 18 -80 21 -49 8 -56 22 -28 51 17 17 35 43 49 74 4 8 10 17 13 20 16 14
51 71 51 83 0 8 7 20 15 27 8 7 15 20 15 30 0 10 7 23 15 30 8 7 15 20 15 30
0 10 7 23 15 30 8 7 15 20 15 30 0 10 7 23 15 30 8 7 15 22 15 34 0 11 7 30
15 40 8 11 15 30 15 42 0 12 7 27 15 34 8 7 15 22 15 34 0 11 7 30 15 40 8 11
15 32 15 47 0 14 7 32 15 39 8 7 15 24 15 39 1 14 7 37 15 51 8 14 14 39 15
56 0 17 7 37 15 44 9 7 15 29 15 54 0 23 7 51 15 62 8 10 15 35 15 54 0 19 7
53 15 75 9 25 14 81 15 151 0 94 4 124 15 124 2 0 20 -7 41 -16z m-397 -228
c-5 -6 -8 18 -8 55 l2 64 7 -55 c4 -30 3 -59 -1 -64z m-5149 12 c0 -63 5 -102
15 -122 8 -15 15 -54 15 -86 0 -39 5 -64 15 -74 9 -8 15 -33 15 -59 0 -27 6
-49 15 -57 8 -7 15 -29 15 -49 0 -21 7 -46 15 -57 8 -10 15 -31 15 -45 0 -14
7 -34 15 -45 8 -10 15 -31 15 -45 0 -15 7 -32 15 -39 8 -7 15 -25 15 -40 0
-15 7 -33 15 -40 8 -7 15 -23 15 -35 0 -12 7 -28 15 -35 8 -7 15 -23 15 -35 0
-12 7 -28 15 -35 8 -7 15 -21 15 -32 0 -11 7 -26 15 -34 8 -9 15 -24 15 -34 0
-10 7 -20 15 -24 8 -3 15 -16 15 -30 0 -13 7 -26 15 -30 8 -3 15 -14 15 -24 0
-11 7 -25 15 -32 8 -7 15 -17 15 -22 0 -6 20 -37 45 -69 69 -91 61 -109 -56
-124 -46 -6 -58 -4 -80 14 -30 23 -149 197 -149 218 0 7 -4 13 -9 13 -5 0 -13
10 -16 23 -6 21 -51 119 -81 179 -8 14 -14 36 -14 47 0 12 -4 21 -9 21 -5 0
-13 15 -16 33 -4 17 -10 37 -14 42 -4 6 -17 44 -30 85 -13 41 -28 84 -34 95
-6 11 -14 36 -18 55 -4 19 -17 71 -29 115 -39 148 -52 230 -52 314 0 98 11
118 87 162 82 46 85 44 85 -63z m647 15 c-2 -16 -4 -3 -4 27 0 30 2 43 4 28 2
-16 2 -40 0 -55z m5220 53 c84 -43 95 -60 95 -163 0 -84 -12 -167 -48 -313 -9
-36 -20 -74 -24 -85 -5 -11 -11 -31 -13 -45 -7 -31 -34 -109 -46 -131 -5 -9
-13 -33 -16 -53 -4 -20 -11 -39 -16 -42 -5 -3 -9 -13 -9 -22 0 -9 -7 -30 -15
-46 -8 -15 -15 -33 -15 -38 0 -10 -110 -244 -130 -278 -126 -211 -141 -223
-258 -199 -77 16 -87 32 -48 75 37 41 41 47 49 64 4 8 16 29 27 45 11 17 24
40 29 52 5 11 15 24 20 28 6 3 11 17 11 31 0 14 7 27 15 30 8 4 15 17 15 30 0
14 7 27 15 30 8 4 15 16 15 29 0 12 7 28 15 35 8 7 15 20 15 29 0 10 7 26 15
37 8 10 15 31 15 45 0 15 7 32 15 39 8 7 15 23 15 35 0 12 7 28 15 35 8 7 15
25 15 40 0 15 7 33 15 40 8 7 15 29 15 50 0 21 7 43 15 50 8 7 15 27 15 44 0
18 7 41 15 52 16 21 20 114 5 114 -6 0 -9 25 -9 58 l1 57 8 -53 c4 -29 11 -56
15 -60 13 -13 25 24 25 79 0 31 7 70 15 85 10 19 15 58 15 115 0 112 1 113 77
75z m-2452 -46 c295 -29 563 -68 785 -115 41 -9 97 -20 124 -25 94 -18 116
-29 116 -59 0 -15 -6 -36 -14 -46 -12 -17 -18 -18 -72 -7 -33 7 -92 19 -131
27 -40 8 -108 22 -150 31 -177 36 -416 68 -618 84 -328 25 -409 30 -516 30
-135 0 -578 -26 -699 -40 -47 -6 -121 -15 -165 -21 -191 -23 -466 -72 -560
-99 -16 -5 -53 -12 -80 -16 -56 -7 -68 1 -80 48 -9 34 18 53 95 67 30 6 84 17
120 26 124 30 350 68 505 85 50 5 119 14 155 21 160 27 931 33 1185 9z m2332
-112 c-2 -18 -4 -4 -4 32 0 36 2 50 4 33 2 -18 2 -48 0 -65z m-5708 -32 c-9
-8 -10 0 -5 38 3 27 7 56 8 65 1 9 3 -8 5 -38 3 -33 0 -58 -8 -65z m1008 55
c2 -45 30 -177 42 -201 5 -9 12 -30 15 -48 4 -17 12 -34 17 -37 5 -4 9 -13 9
-21 0 -20 39 -104 56 -121 8 -8 14 -18 14 -23 0 -15 -49 -40 -80 -40 -18 0
-33 -6 -36 -15 -8 -20 -47 -19 -67 3 -21 23 -77 137 -77 157 0 9 -6 29 -14 43
-24 47 -38 115 -43 210 -5 92 -5 92 19 92 13 0 30 6 36 12 14 14 81 37 97 34
6 -2 11 -22 12 -45z m3731 40 c23 -11 81 -32 110 -38 21 -5 22 -10 22 -92 -1
-60 -5 -92 -15 -105 -8 -11 -15 -38 -15 -60 0 -23 -7 -50 -15 -60 -8 -11 -15
-28 -15 -38 0 -21 -55 -126 -79 -151 -17 -17 -21 -17 -99 9 -86 27 -98 41 -62
71 11 10 20 24 20 33 0 8 7 24 15 34 8 11 15 28 15 37 0 10 6 30 14 46 23 48
38 95 48 158 5 33 14 70 19 81 6 12 8 31 4 43 -6 19 0 41 11 41 2 0 12 -4 22
-9z m-4072 -128 c8 -17 14 -40 14 -51 0 -12 4 -23 9 -26 4 -3 11 -23 15 -44 3
-22 13 -52 21 -68 8 -16 15 -37 15 -46 0 -9 5 -20 10 -23 6 -3 10 -14 10 -23
0 -9 6 -29 14 -44 8 -15 17 -40 21 -57 4 -17 10 -31 15 -31 5 0 12 -15 15 -32
4 -18 11 -35 15 -38 4 -3 11 -20 15 -37 5 -26 3 -33 -9 -33 -11 0 -16 10 -16
34 0 21 -6 36 -15 40 -8 3 -15 16 -15 29 0 14 -7 30 -15 37 -8 7 -15 23 -15
36 0 12 -4 25 -9 28 -5 3 -12 22 -15 41 -4 19 -11 35 -16 35 -6 0 -13 18 -16
40 -4 22 -11 43 -15 46 -5 3 -9 16 -9 30 0 13 -8 32 -17 42 -12 11 -19 36 -21
72 -2 30 -7 57 -13 58 -5 2 -9 27 -8 55 l1 52 10 -45 c5 -25 16 -59 24 -77z
m4410 18 c-9 -10 -19 -41 -23 -70 -3 -28 -10 -51 -14 -51 -5 0 -9 -10 -9 -22
0 -13 -7 -36 -15 -52 -8 -15 -15 -36 -15 -45 0 -9 -6 -28 -14 -43 -8 -15 -17
-40 -21 -57 -4 -17 -11 -31 -16 -31 -5 0 -9 -11 -9 -24 0 -14 -7 -31 -15 -40
-8 -8 -15 -28 -15 -44 0 -17 -6 -32 -15 -36 -8 -3 -15 -14 -15 -25 0 -11 -9
-25 -20 -31 -12 -6 -20 -22 -21 -38 -1 -18 -3 -21 -6 -9 -3 10 3 35 12 55 19
44 22 51 69 163 20 47 36 93 36 101 0 8 4 18 9 23 4 6 18 44 31 85 13 41 29
89 36 107 8 17 14 40 14 51 0 12 4 23 9 26 5 4 13 30 17 59 l8 52 9 -43 c8
-35 7 -46 -7 -61z m-3793 -68 c9 -26 15 -48 14 -48 -68 -30 -92 -34 -114 -20
-17 11 -23 25 -23 51 0 19 6 36 13 38 6 2 26 8 42 14 48 16 52 14 68 -35z
m3220 31 c43 -15 47 -18 47 -49 0 -47 -46 -86 -64 -56 -3 4 -20 11 -37 15 -25
5 -30 10 -24 23 4 10 9 33 12 51 6 37 5 37 66 16z m-4466 -66 c-2 -13 -4 -3
-4 22 0 25 2 35 4 23 2 -13 2 -33 0 -45z m33 -85 c0 -16 6 -40 14 -55 8 -14
17 -45 21 -67 4 -23 11 -41 16 -41 5 0 9 -12 9 -27 1 -16 9 -46 20 -68 11 -22
19 -48 20 -57 0 -10 5 -18 10 -18 6 0 10 -10 10 -22 1 -13 9 -41 20 -63 11
-22 19 -48 20 -57 0 -10 4 -18 9 -18 11 0 25 -59 16 -68 -8 -9 -25 18 -25 41
0 10 -7 25 -15 33 -8 9 -15 26 -15 39 0 12 -7 25 -15 29 -9 3 -15 18 -15 38 0
18 -7 42 -15 52 -8 11 -15 30 -15 42 0 12 -5 24 -12 26 -6 2 -13 20 -14 39 -2
19 -10 48 -18 64 -9 17 -16 42 -16 56 0 15 -7 32 -15 39 -17 14 -21 90 -5 90
6 0 10 -12 10 -27z m5581 -56 c-17 -17 -21 -4 -14 39 l7 39 8 -34 c6 -22 6
-37 -1 -44z m-28 -64 c-3 -26 -12 -54 -20 -61 -7 -7 -13 -29 -13 -48 0 -19 -4
-34 -10 -34 -5 0 -10 -8 -10 -17 0 -10 -7 -31 -16 -48 -9 -16 -16 -43 -16 -58
0 -16 -6 -31 -14 -34 -8 -3 -14 -18 -14 -33 0 -16 -4 -31 -9 -34 -10 -7 -45
-78 -56 -113 -3 -13 -10 -23 -14 -23 -5 0 -11 -13 -14 -30 -4 -16 -11 -30 -17
-30 -13 0 -1 50 17 68 7 7 13 24 13 38 0 13 4 24 9 24 5 0 13 10 16 23 9 29
32 85 51 119 7 14 14 35 14 46 0 12 4 23 9 27 5 3 12 19 16 36 4 17 13 42 21
57 8 15 14 38 14 52 0 14 7 34 15 44 8 11 15 32 15 48 0 15 4 28 10 28 6 0 7
-19 3 -47z m-5783 -152 c0 -11 5 -23 10 -26 6 -3 10 -16 10 -29 0 -12 7 -31
15 -42 8 -10 15 -28 15 -40 0 -11 7 -29 15 -40 8 -10 15 -27 15 -36 0 -9 8
-30 17 -46 23 -40 8 -57 -58 -66 -54 -7 -75 4 -92 47 -3 9 -11 17 -17 17 -5 0
-10 7 -10 16 0 9 -7 28 -14 42 -8 15 -18 53 -21 84 -4 32 -11 60 -16 64 -12 7
33 44 53 44 8 0 23 7 34 15 27 20 44 19 44 -4z m6070 4 c7 -8 23 -15 35 -15
39 0 48 -23 40 -97 -7 -72 -33 -139 -65 -168 -11 -10 -20 -24 -20 -31 0 -20
-40 -38 -53 -25 -6 6 -23 11 -38 11 -41 0 -55 24 -36 63 35 73 77 191 77 215
0 16 30 62 40 62 4 0 13 -7 20 -15z m-6225 -130 c6 -39 16 -80 23 -92 6 -12
12 -27 12 -34 0 -6 15 -30 33 -53 53 -64 27 -94 -29 -33 -38 40 -59 91 -78
186 -16 79 -13 104 13 99 12 -2 19 -22 26 -73z m6387 57 c6 -23 -27 -184 -44
-214 -7 -13 -26 -38 -42 -55 -55 -61 -79 -30 -27 36 15 20 32 47 36 61 4 14
11 30 16 36 4 5 10 37 11 70 2 32 7 65 12 72 11 18 33 15 38 -6z m-5183 -94
c1 -5 -6 -8 -15 -8 -11 0 -14 5 -10 16 3 9 6 21 7 27 0 12 17 -20 18 -35z m25
-34 c8 -22 -4 -40 -15 -23 -11 18 -11 39 0 39 5 0 12 -7 15 -16z m3906 -3 c0
-22 -16 -36 -24 -22 -8 12 3 41 15 41 5 0 9 -9 9 -19z m-3875 -59 c0 -18 -20
-15 -23 4 -3 10 1 15 10 12 7 -3 13 -10 13 -16z m3845 4 c0 -8 -4 -17 -9 -21
-12 -7 -24 12 -16 25 9 15 25 12 25 -4z m-4481 -119 c19 -40 47 -93 62 -120
16 -26 29 -55 28 -65 0 -14 -2 -13 -9 3 -4 12 -15 27 -24 34 -9 7 -16 22 -16
31 0 10 -4 20 -8 22 -9 3 -82 145 -82 159 0 25 18 1 49 -64z m722 -30 c-1 -12
-15 -9 -19 4 -3 6 1 10 8 8 6 -3 11 -8 11 -12z m4359 -42 c0 -14 -7 -28 -15
-31 -8 -4 -15 -12 -15 -19 0 -8 -6 -20 -13 -27 -7 -7 -18 -22 -25 -33 -11 -20
-11 -20 -12 1 0 12 6 26 13 32 6 6 21 31 32 56 22 51 35 59 35 21z m-4960
-147 c0 -6 10 -22 22 -35 12 -13 18 -26 13 -30 -4 -5 -10 -3 -12 4 -2 6 -13
21 -24 34 -21 24 -24 39 -9 39 6 0 10 -5 10 -12z m4870 -3 c0 -8 -9 -19 -20
-25 -11 -6 -20 -17 -20 -25 0 -8 -4 -15 -10 -15 -5 0 -10 -7 -10 -15 0 -8 -4
-15 -10 -15 -5 0 -10 2 -10 5 0 8 32 57 47 73 7 7 13 18 13 23 0 5 5 9 10 9 6
0 10 -7 10 -15z"/>
</g>
</svg>
