<?xml version="1.0" standalone="no"?>
<!DOCTYPE svg PUBLIC "-//W3C//DTD SVG 20010904//EN"
 "http://www.w3.org/TR/2001/REC-SVG-20010904/DTD/svg10.dtd">
<svg version="1.0" xmlns="http://www.w3.org/2000/svg"
 width="225.000000pt" height="225.000000pt" viewBox="0 0 225.000000 225.000000"
 preserveAspectRatio="xMidYMid meet">
<metadata>
Created by potrace 1.10, written by Peter Selinger 2001-2011
</metadata>
<g transform="translate(0.000000,225.000000) scale(0.050000,-0.050000)"
fill="#ffdb6e" stroke="none">
<path d="M606 2900 c-25 -10 -56 -37 -70 -59 -21 -34 -46 -41 -140 -41 -180 0
-220 -46 -232 -267 -8 -163 -12 -173 -53 -173 -25 0 -61 -18 -81 -40 -54 -59
-14 -140 70 -140 l60 0 0 -151 c0 -255 54 -329 240 -329 86 0 109 -8 148 -54
38 -44 66 -54 169 -62 250 -18 303 50 303 385 l0 211 1230 0 1230 0 0 -211 c0
-335 53 -403 303 -385 103 8 131 18 169 62 39 46 62 54 148 54 186 0 240 74
240 329 l0 151 56 0 c100 0 138 83 67 147 -20 18 -56 33 -80 33 -40 0 -43 10
-43 131 0 234 -58 309 -240 309 -86 0 -109 8 -148 54 -38 44 -66 54 -169 62
-247 18 -303 -48 -303 -355 l0 -201 -1230 0 -1230 0 0 187 c0 222 -24 304
-101 344 -62 32 -243 37 -313 9z m214 -651 l0 -492 -65 7 -65 6 -5 460 c-6
519 -8 510 74 510 l61 0 0 -491z m2990 1 l0 -480 -65 -6 -65 -7 0 493 0 493
65 -7 65 -6 0 -480z m-3310 0 l0 -370 -70 0 -70 0 0 370 0 370 70 0 70 0 0
-370z m3640 0 l0 -370 -70 0 -70 0 0 370 0 370 70 0 70 0 0 -370z"/>
</g>
</svg>
