<?xml version="1.0" standalone="no"?>
<!DOCTYPE svg PUBLIC "-//W3C//DTD SVG 20010904//EN"
 "http://www.w3.org/TR/2001/REC-SVG-20010904/DTD/svg10.dtd">
<svg version="1.0" xmlns="http://www.w3.org/2000/svg"
 width="300.000000pt" height="166.000000pt" viewBox="0 0 300.000000 166.000000"
 preserveAspectRatio="xMidYMid meet">
<metadata>
Created by potrace 1.10, written by Peter Selinger 2001-2011
</metadata>
<g transform="translate(0.000000,166.000000) scale(0.100000,-0.100000)"
fill="#ffdb6e" stroke="none">
<path d="M1860 1529 c-25 -4 -122 -8 -217 -9 -314 -1 -409 -26 -512 -135 l-52
-55 -32 24 c-64 49 -138 76 -208 76 -131 0 -271 -50 -444 -160 -55 -34 -127
-77 -159 -94 -68 -35 -93 -70 -102 -138 -5 -33 -11 -48 -21 -48 -22 0 -19 -5
140 -262 79 -128 199 -323 267 -433 68 -110 125 -202 126 -204 2 -2 77 30 166
72 216 99 354 156 581 237 170 62 192 67 225 58 74 -20 218 14 301 73 42 29
56 32 330 69 157 21 369 48 471 60 101 11 185 22 187 23 1 2 3 23 5 47 l3 44
-74 55 c-72 54 -73 56 -68 92 3 23 1 39 -7 42 -6 3 -191 126 -411 274 -220
148 -411 277 -425 285 -18 11 -37 13 -70 7z m447 -283 c216 -146 397 -266 403
-266 5 0 10 -4 10 -9 0 -5 -48 -12 -107 -16 -335 -20 -426 -27 -505 -40 -150
-26 -227 -62 -305 -142 l-53 -54 -89 83 c-49 46 -195 182 -323 303 l-235 220
30 35 c17 19 51 50 76 68 78 56 119 63 408 71 145 4 266 11 270 15 4 3 12 5
17 2 6 -2 188 -124 403 -270z m-1360 144 c85 -37 168 -106 444 -371 156 -149
290 -277 298 -284 11 -10 1 -12 -51 -8 -128 11 -323 -30 -475 -98 -37 -17
-122 -61 -188 -99 -140 -79 -272 -146 -278 -140 -29 31 -478 755 -470 757 5 2
79 46 163 98 256 158 424 202 557 145z m-646 -423 c53 -83 161 -253 239 -376
l142 -225 -8 -90 -9 -91 -257 405 -257 405 10 44 c11 48 26 81 37 81 4 0 50
-69 103 -153z m2439 -71 c0 -24 34 -161 40 -161 0 0 -53 1 -117 3 -65 2 -210
-4 -323 -11 -237 -17 -283 -30 -386 -108 -36 -27 -67 -49 -70 -49 -2 0 -4 11
-4 23 0 13 -9 32 -19 41 -16 15 -25 16 -63 6 -23 -7 -49 -17 -55 -22 -21 -17
-15 3 18 53 17 27 57 73 90 103 47 43 74 60 127 76 105 33 320 61 532 69 107
4 203 9 213 9 13 2 17 -6 17 -32z m87 -86 c11 -9 28 -22 39 -28 14 -7 20 -21
19 -43 0 -37 -9 -41 -130 -53 -102 -10 -333 -40 -640 -81 -22 -3 -67 -8 -100
-11 l-60 -6 38 27 c50 35 125 68 137 60 6 -3 10 -2 10 3 0 5 33 10 73 10 40 0
91 5 115 10 23 6 39 6 36 1 -3 -5 -1 -9 5 -9 5 0 12 4 15 8 3 5 87 10 186 11
172 2 230 9 230 29 0 5 -7 29 -15 52 -8 23 -15 44 -15 45 0 8 41 -9 57 -25z
m-2528 -100 c11 -24 11 -24 -3 -6 -9 11 -16 24 -16 30 0 12 5 7 19 -24z m1421
-29 c-5 -11 -15 -23 -20 -26 -19 -12 -50 -84 -50 -117 l0 -33 -72 3 c-173 9
-378 -65 -752 -271 -76 -43 -144 -77 -150 -77 -6 0 -5 4 3 9 11 7 28 107 30
183 1 10 26 28 69 48 37 17 139 70 227 118 266 144 382 179 598 181 124 1 127
0 117 -18z m6 -71 c8 -8 25 -8 58 0 51 11 56 9 89 -43 17 -27 17 -27 -15 -47
-31 -19 -146 -50 -171 -46 -18 2 -20 12 -12 59 14 79 28 100 51 77z m-1316
-75 c14 -19 14 -19 -2 -6 -10 7 -18 18 -18 24 0 6 1 8 3 6 1 -2 9 -13 17 -24z
m40 -60 c0 -8 -2 -15 -4 -15 -2 0 -6 7 -10 15 -3 8 -1 15 4 15 6 0 10 -7 10
-15z m1107 9 c-10 -10 -67 -22 -67 -14 0 8 18 14 54 17 10 1 16 0 13 -3z m-86
-11 c-9 -4 -10 -7 -2 -12 6 -4 -32 -23 -86 -41 -97 -33 -372 -142 -405 -160
-10 -6 -28 -10 -41 -10 -13 0 -28 -5 -35 -12 -6 -6 -14 -9 -18 -6 -8 8 54 40
65 34 4 -3 15 4 24 15 10 11 22 17 27 14 6 -3 10 -2 10 4 0 17 124 71 132 58
5 -8 8 -6 8 4 0 19 26 32 43 22 7 -3 9 -3 5 2 -15 16 206 91 272 93 12 0 12
-1 1 -5z m-967 -79 c3 -8 2 -12 -4 -9 -6 3 -10 10 -10 16 0 14 7 11 14 -7z
m66 -104 c0 -5 -4 -10 -10 -10 -5 0 -10 5 -10 10 0 6 5 10 10 10 6 0 10 -4 10
-10z m40 -70 c0 -5 -2 -10 -4 -10 -3 0 -8 5 -11 10 -3 6 -1 10 4 10 6 0 11 -4
11 -10z m250 -10 c-8 -5 -22 -10 -30 -10 -13 0 -13 1 0 10 8 5 22 10 30 10 13
0 13 -1 0 -10z m-213 -40 c10 -17 26 -30 38 -30 19 -1 19 -1 2 -11 -22 -13
-41 1 -63 43 -19 38 0 36 23 -2z m160 14 c-3 -3 -12 -4 -19 -1 -8 3 -5 6 6 6
11 1 17 -2 13 -5z m-47 -18 c0 -2 -7 -7 -16 -10 -8 -3 -12 -2 -9 4 6 10 25 14
25 6z"/>
</g>
</svg>
