<?xml version="1.0" standalone="no"?>
<!DOCTYPE svg PUBLIC "-//W3C//DTD SVG 20010904//EN"
 "http://www.w3.org/TR/2001/REC-SVG-20010904/DTD/svg10.dtd">
<svg version="1.0" xmlns="http://www.w3.org/2000/svg"
 width="300.000000pt" height="300.000000pt" viewBox="0 0 300.000000 300.000000"
 preserveAspectRatio="xMidYMid meet">
<metadata>
Created by potrace 1.10, written by Peter Selinger 2001-2011
</metadata>
<g transform="translate(0.000000,300.000000) scale(0.100000,-0.100000)"
fill="#ffdb6e" stroke="none">
<path d="M1077 2555 c-445 -62 -821 -116 -835 -120 -15 -4 -48 -28 -73 -54
-61 -64 -85 -144 -76 -264 7 -100 27 -167 66 -229 l30 -48 -62 -18 c-95 -30
-103 -67 -23 -103 85 -37 120 -115 114 -250 l-3 -64 -85 -30 c-133 -48 -163
-76 -98 -90 48 -11 49 -12 22 -52 -53 -78 -68 -202 -40 -335 22 -102 65 -171
126 -203 14 -7 271 -92 571 -189 l546 -177 789 191 c928 225 864 208 864 221
0 16 -60 47 -142 75 l-78 26 0 77 c0 92 21 169 53 199 13 13 44 33 68 45 59
30 65 61 14 83 l-36 15 36 42 c54 63 80 157 80 287 -1 93 -4 112 -28 164 -15
32 -27 60 -27 61 0 2 26 9 58 16 65 14 92 25 92 39 0 13 -73 49 -150 74 l-65
21 0 95 c0 130 23 179 104 218 48 24 56 32 56 56 l0 28 -510 154 c-280 84
-519 153 -530 153 -11 -1 -384 -52 -828 -114z m-256 -409 l534 -174 -3 -178
c-2 -98 -4 -179 -5 -181 -4 -4 -1067 296 -1087 307 -39 21 -63 88 -68 187 -2
51 -1 108 2 127 7 38 50 86 76 86 10 0 258 -78 551 -174z m1921 52 c-11 -29
-16 -79 -17 -153 l-1 -110 -629 -156 c-347 -85 -643 -159 -659 -163 l-29 -7 7
177 c4 98 8 179 9 180 3 4 1299 271 1318 273 15 1 15 -2 1 -41z m17 -454 c36
-26 51 -75 51 -166 0 -144 -35 -218 -113 -239 -23 -6 -266 -73 -541 -150 -274
-77 -500 -138 -501 -137 -2 2 -6 82 -10 179 l-8 176 344 112 c189 62 430 141
534 176 105 35 197 64 205 64 9 1 26 -6 39 -15z m-1829 -205 c355 -73 646
-133 647 -134 1 0 5 -81 9 -180 l7 -178 -24 6 c-13 4 -310 77 -659 164 l-636
157 0 110 c0 76 -5 125 -16 154 -16 43 -16 44 5 39 12 -3 312 -65 667 -138z
m-192 -520 l534 -173 -7 -176 c-4 -96 -9 -177 -11 -179 -1 -2 -245 65 -541
147 -496 139 -540 153 -565 181 -36 40 -51 98 -51 202 0 68 4 94 19 120 20 34
58 60 78 54 6 -2 251 -81 544 -176z m1914 59 c-11 -29 -16 -78 -17 -154 l0
-110 -650 -162 c-357 -90 -653 -162 -657 -162 -9 0 -9 209 1 294 l6 59 135 29
c74 16 146 27 159 25 13 -3 60 7 105 21 57 17 818 183 927 201 4 1 0 -18 -9
-41z"/>
</g>
</svg>
