<?xml version="1.0" standalone="no"?>
<!DOCTYPE svg PUBLIC "-//W3C//DTD SVG 20010904//EN"
 "http://www.w3.org/TR/2001/REC-SVG-20010904/DTD/svg10.dtd">
<svg version="1.0" xmlns="http://www.w3.org/2000/svg"
 width="300.000000pt" height="166.000000pt" viewBox="0 0 300.000000 166.000000"
 preserveAspectRatio="xMidYMid meet">
<metadata>
Created by potrace 1.10, written by Peter Selinger 2001-2011
</metadata>
<g transform="translate(0.000000,166.000000) scale(0.100000,-0.100000)"
fill="#ffdb6e" stroke="none">
<path d="M1865 1529 c-22 -5 -152 -13 -290 -17 -305 -11 -333 -18 -433 -119
l-64 -63 -32 25 c-17 13 -58 36 -90 51 -54 24 -66 26 -145 21 -127 -8 -231
-46 -386 -141 -71 -44 -158 -95 -193 -113 -66 -36 -86 -62 -97 -128 -4 -22
-14 -45 -22 -52 -14 -10 -1 -37 94 -190 61 -98 183 -297 273 -443 90 -146 165
-267 166 -269 2 -2 74 29 161 69 212 98 334 149 548 228 179 65 181 66 290 67
124 2 190 20 272 75 45 31 59 34 293 66 135 18 346 45 470 59 124 15 225 28
226 29 1 0 4 20 8 43 l6 43 -75 55 c-70 52 -75 58 -75 93 l0 38 -406 274
c-224 151 -418 282 -433 291 -20 12 -36 14 -66 8z m453 -289 c222 -149 402
-274 400 -276 -2 -2 -120 -10 -263 -19 -431 -27 -544 -57 -658 -178 l-47 -51
-43 40 c-23 23 -166 157 -317 299 -151 142 -277 265 -278 273 -6 21 84 101
144 129 75 34 144 43 354 44 102 0 205 4 230 9 25 4 52 7 60 6 8 -2 197 -126
418 -276z m-1370 153 c76 -31 174 -114 452 -381 157 -151 286 -277 288 -281 1
-4 -44 -7 -100 -8 -220 -2 -347 -45 -673 -228 -147 -83 -213 -112 -224 -99
-13 16 -461 723 -467 738 -3 7 2 16 10 19 9 4 71 41 139 83 263 166 439 214
575 157z m-637 -441 c59 -92 166 -261 239 -376 l133 -208 -9 -92 -9 -91 -255
400 c-214 336 -254 405 -252 433 2 38 27 102 39 102 4 0 56 -75 114 -168z
m2429 -56 c0 -19 9 -62 19 -95 l19 -61 -42 0 c-73 -1 -479 -20 -546 -25 -76
-7 -169 -46 -247 -106 -29 -21 -54 -39 -56 -39 -3 0 -7 13 -10 29 -8 39 -35
53 -78 41 -58 -17 -63 -14 -39 26 117 199 265 240 933 262 l47 2 0 -34z
m-1020 -203 c0 -3 -14 -28 -31 -54 -17 -27 -33 -66 -36 -87 l-5 -39 -107 -6
c-181 -9 -339 -68 -674 -250 -98 -53 -180 -97 -181 -97 -1 0 1 21 6 48 4 26
11 73 14 104 5 57 6 58 52 78 26 12 130 65 232 120 300 160 387 188 603 189
70 1 127 -2 127 -6z"/>
</g>
</svg>
