<?xml version="1.0" standalone="no"?>
<!DOCTYPE svg PUBLIC "-//W3C//DTD SVG 20010904//EN"
 "http://www.w3.org/TR/2001/REC-SVG-20010904/DTD/svg10.dtd">
<svg version="1.0" xmlns="http://www.w3.org/2000/svg"
 width="225.000000pt" height="225.000000pt" viewBox="0 0 225.000000 225.000000"
 preserveAspectRatio="xMidYMid meet">
<metadata>
Created by potrace 1.10, written by Peter Selinger 2001-2011
</metadata>
<g transform="translate(0.000000,225.000000) scale(0.100000,-0.100000)"
fill="#ffdb6e" stroke="none">
<path d="M975 2239 c-229 -29 -448 -135 -621 -301 -110 -106 -172 -189 -234
-313 -157 -318 -157 -683 0 -1000 59 -119 113 -192 218 -298 382 -387 1013
-433 1451 -107 567 423 617 1234 105 1720 -248 236 -574 342 -919 299z m-9
-211 c-22 -49 -91 -259 -112 -338 l-10 -35 -102 -3 c-56 -1 -102 1 -102 6 0
17 98 171 150 236 49 63 177 186 192 186 4 0 -4 -24 -16 -52z m376 -8 c36 -33
90 -90 118 -126 52 -65 150 -219 150 -236 0 -5 -46 -7 -102 -6 l-101 3 -39
130 c-22 72 -54 167 -72 213 -18 45 -30 82 -27 82 3 0 36 -27 73 -60z m-168
-90 c34 -90 86 -254 86 -272 0 -4 -61 -8 -135 -8 -74 0 -135 4 -135 8 0 19 54
191 82 261 16 42 34 87 39 100 13 33 20 22 63 -89z m-493 53 c-59 -76 -110
-157 -152 -238 l-46 -90 -92 -3 c-50 -1 -91 0 -91 3 0 17 69 103 133 167 62
62 236 188 260 188 5 0 -1 -12 -12 -27z m946 -13 c103 -63 189 -138 259 -225
35 -43 64 -83 64 -87 0 -5 -41 -7 -91 -6 l-92 3 -46 90 c-42 81 -93 162 -152
238 -11 15 -18 27 -15 27 4 0 36 -18 73 -40z m-1195 -469 c-22 -101 -33 -169
-40 -231 l-7 -75 -120 0 -120 0 3 35 c4 56 33 180 54 238 l20 53 106 -3 c86
-2 106 -6 104 -17z m375 -28 c-4 -27 -12 -101 -19 -165 l-12 -118 -123 0 -123
0 0 46 c0 51 36 237 51 266 9 16 23 18 121 18 l111 0 -6 -47z m499 -28 c7 -38
16 -112 20 -162 l7 -93 -208 0 -208 0 7 88 c6 82 23 202 31 230 4 10 43 12
172 10 l168 -3 11 -70z m363 57 c15 -29 51 -215 51 -266 l0 -46 -123 0 -124 0
-12 118 c-6 64 -14 138 -18 165 l-6 47 111 0 c98 0 112 -2 121 -18z m379 -34
c21 -58 50 -182 54 -238 l3 -35 -120 0 -120 0 -11 101 c-7 56 -19 127 -27 158
-7 31 -12 58 -9 61 3 3 52 5 108 5 l103 0 19 -52z m-1656 -488 c4 -41 14 -109
23 -151 8 -42 15 -81 15 -87 0 -8 -32 -12 -104 -12 l-105 0 -19 53 c-11 28
-23 63 -27 75 -12 39 -33 186 -28 195 2 4 57 6 121 5 l117 -3 7 -75z m389 -15
c4 -49 10 -123 14 -162 l8 -73 -106 0 c-67 0 -108 4 -113 11 -16 26 -44 160
-50 237 l-7 83 124 -3 124 -3 6 -90z m548 18 c0 -43 -6 -116 -12 -163 l-12
-85 -180 0 -180 0 -12 85 c-6 47 -12 120 -12 163 l-1 77 205 0 205 0 -1 -77z
m387 -5 c-6 -77 -34 -211 -50 -237 -5 -7 -46 -11 -113 -11 l-106 0 7 58 c3 31
9 100 12 152 3 52 7 101 10 108 2 9 36 12 125 12 l122 0 -7 -82z m386 42 c-4
-56 -33 -180 -54 -237 l-19 -53 -106 0 -106 0 7 38 c3 20 13 73 21 117 8 44
14 98 15 121 0 22 3 44 7 48 4 3 59 5 122 4 l116 -3 -3 -35z m-1581 -502 c47
-93 75 -139 137 -220 24 -32 41 -58 37 -58 -13 0 -144 86 -203 133 -58 47
-192 200 -192 219 0 4 40 8 90 8 l90 0 41 -82z m340 -19 c29 -100 76 -223 110
-291 11 -22 19 -42 17 -44 -8 -7 -147 127 -198 192 -52 65 -150 219 -150 236
0 5 44 7 97 6 l97 -3 27 -96z m409 90 c0 -23 -70 -220 -107 -300 l-37 -83 -38
80 c-35 75 -108 279 -108 303 0 7 46 11 145 11 101 0 145 -3 145 -11z m340 6
c0 -13 -47 -95 -93 -165 -48 -73 -243 -278 -253 -267 -3 3 6 27 19 54 33 65
92 223 112 303 9 36 19 68 21 72 6 9 194 11 194 3z m340 -2 c0 -26 -135 -175
-219 -241 -46 -37 -165 -112 -176 -112 -2 0 23 37 55 83 33 45 82 126 110 180
l51 97 90 0 c49 0 89 -3 89 -7z"/>
</g>
</svg>
